<svg xmlns="http://www.w3.org/2000/svg" id="Layer_1" viewBox="0 0 1896 427">
  <defs>
    <style>
      .st0 {
        fill: #002b11;
      }
      .st2 {
        fill: #ff86a1;
      }
      .st3 {
        fill: #382d18;
      }
    </style>
  </defs>
  <path
    d="m1431.17 30-27.13-30h-.03l27.13 30zM468.16 397l27.13 30-27.12-30zm554.3 0 27.13 30h.01l-27.12-30zm728.55-13.28h-.02l21.23 23.48h.02l-21.23-23.47ZM147.45 42.3l-21.33-23.59v.01l21.33 23.59zM690.64 30 663.51 0h-.01l27.12 30z"
    class="st0"
  />
  <path d="m1616.69 30-27.13-30h-185.52l27.13 30z" class="st3" />
  <path
    d="m1857.33 90.87-35.01-38.71C1783.52 18.42 1734.43 0 1682.5 0h-92.94l27.13 30h65.81c101.18 0 183.5 82.32 183.5 183.5 0 26.55-5.67 51.79-15.86 74.59l21.69 23.99c15.43-29.51 24.17-63.04 24.17-98.58 0-44.52-13.54-86.97-38.67-122.63"
  />
  <path
    d="M1850.14 288.09s-.02.04-.03.07c-19.36 43.29-55.01 77.76-99.11 95.57l21.23 23.47c42.71-19.87 77.8-53.45 99.57-95.06l.03-.06z"
    class="st3"
  />
  <path
    d="M1245.98 30h185.16l-27.13-30h-185.15zm436.52 367h-104.68l27.13 30h77.55c32.03 0 62.42-7.1 89.71-19.79l-21.23-23.48c-21.17 8.55-44.29 13.27-68.48 13.27"
    style="fill: #a66aff"
  />
  <path
    d="M1218.86 0h-185.25l27.12 30h185.25zm358.96 397h-185.24l27.12 30h185.25z"
    style="fill: #228aff"
  />
  <path
    d="M1392.58 397h-184.49l27.12 30h184.49zM1033.61 0H849.12l27.12 30h184.49z"
    style="fill: #00eb5b"
  />
  <path
    d="M1208.09 397h-185.61l27.12 30h185.61zM849.12 0H663.51l27.13 30h185.6z"
    style="fill: #ffff59"
  />
  <path
    d="M505.38 30h185.24L663.5 0H478.25zm331.84 367 27.13 30h185.24l-27.13-30z"
    style="fill: #ff9626"
  />
  <path
    d="M837.22 397H653.78l27.12 30h183.45zM478.25 0H294.81l27.12 30h183.45z"
    style="fill: #ff4e51"
  />
  <path
    d="M653.78 397H468.17l27.12 30H680.9zM294.81 0H213.5c-31.11 0-60.69 6.69-87.38 18.71l21.33 23.59C167.96 34.36 190.23 30 213.5 30h108.43z"
    style="fill: #fff"
  />
  <path
    d="m282.64 397 27.13 30h185.52l-27.13-30zM25.43 112.54l21.58 23.87c19.96-42.94 56.05-76.91 100.44-94.1l-21.33-23.59C83.15 38.07 47.69 71.25 25.43 112.54"
    class="st2"
  />
  <path d="m25.43 112.54-.03.06 21.58 23.87.03-.06z" class="st2" />
  <path
    d="M282.64 397H213.5C112.32 397 30 314.68 30 213.5c0-27.5 6.09-53.6 16.98-77.03L25.4 112.6C9.2 142.66 0 177.02 0 213.5c0 40.22 11.19 77.88 30.6 110.03l54.96 60.79C121.24 411.11 165.54 427 213.49 427h96.27l-27.13-30Z"
    style="fill: #9bf2ff"
  />
  <path
    d="M1833.47 62.53C1793.14 22.21 1739.53 0 1682.5 0h-1469C95.78 0 0 95.78 0 213.5c0 57.03 22.21 110.64 62.53 150.97C102.85 404.79 156.47 427 213.5 427h1469c57.03 0 110.64-22.21 150.97-62.53 40.32-40.33 62.53-93.94 62.53-150.97s-22.21-110.64-62.53-150.97M1682.5 423h-1469C97.98 423 4 329.02 4 213.5S97.98 4 213.5 4h1469C1798.02 4 1892 97.98 1892 213.5S1798.02 423 1682.5 423"
    class="st0"
  />
  <path
    d="M1682.5 398h-1468C112.77 398 30 315.23 30 213.5S112.77 29 214.5 29h1468c101.73 0 184.5 82.77 184.5 184.5S1784.23 398 1682.5 398M214.5 33C114.97 33 34 113.97 34 213.5S114.97 394 214.5 394h1468c99.53 0 180.5-80.97 180.5-180.5S1782.03 33 1682.5 33z"
    class="st0"
  />
  <path
    d="M235.85 234.16c0 7.11-2.11 14.05-6.05 19.96a35.87 35.87 0 0 1-16.11 13.23 35.94 35.94 0 0 1-20.75 2.05 36.03 36.03 0 0 1-18.39-9.83 35.95 35.95 0 0 1-9.83-18.39 36 36 0 0 1 2.04-20.76 35.9 35.9 0 0 1 13.23-16.12 35.9 35.9 0 0 1 19.95-6.05 35.9 35.9 0 0 1 35.9 35.92Zm166.51-35.92c-7.1 0-14.05 2.11-19.95 6.06a36 36 0 0 0-13.23 16.12 35.9 35.9 0 0 0-2.04 20.76c1.39 6.97 4.8 13.37 9.83 18.39a35.87 35.87 0 0 0 18.39 9.83c6.97 1.39 14.18.68 20.75-2.04a36 36 0 0 0 16.12-13.23 36 36 0 0 0 6.05-19.96c0-4.72-.93-9.39-2.73-13.75s-4.45-8.32-7.78-11.65a35.7 35.7 0 0 0-11.65-7.78 36 36 0 0 0-13.74-2.73Zm100.87 36.12c0 55.82-45.27 101.07-101.06 101.07-25.46.03-49.98-9.59-68.63-26.93l-32.37 35.23-32.39-35.23a100.62 100.62 0 0 1-68.66 26.94c-55.79 0-101.02-45.25-101.02-101.07a100.9 100.9 0 0 1 8.58-40.83 100.7 100.7 0 0 1 24.37-33.86L99 123.69h73.48A227 227 0 0 1 301.15 84c47.92 0 92.21 14.63 128.9 39.69h73.28l-33.05 35.99c10.4 9.46 18.7 21 24.37 33.86 5.68 12.86 8.6 26.77 8.58 40.83Zm-234.73 0c0-37.78-30.61-68.4-68.37-68.4s-68.36 30.62-68.36 68.4 30.61 68.4 68.36 68.4 68.37-30.62 68.37-68.4m108.54-102.11a197.18 197.18 0 0 0-151.74 0c43.15 16.51 75.88 55.14 75.88 100.15 0-45.02 32.71-83.63 75.86-100.15m93.5 102.11c0-37.78-30.61-68.4-68.36-68.4s-68.37 30.62-68.37 68.4 30.61 68.4 68.37 68.4 68.36-30.62 68.36-68.4m213.55-41.44v-22.17h-34.01v132.01h34.01v-79.15c0-14.34 9.2-21.38 23.52-21.38h18.6v-31.48h-15.9c-12.44 0-23.26 6.49-26.23 22.18Zm73.99-74.4c-11.63 0-20.55 9.2-20.55 20.83 0 5.45 2.16 10.68 6.02 14.54 3.85 3.86 9.08 6.02 14.53 6.02s10.68-2.16 14.53-6.02 6.02-9.08 6.02-14.54c0-11.62-8.93-20.83-20.55-20.83m-16.96 184.23h33.91v-132h-33.92v132Zm195.53-66.02c0 37.68-30.54 68.23-68.18 68.23a65.63 65.63 0 0 1-40.04-13.39v49.93h-33.92V170.74h33.92v11.16a65.63 65.63 0 0 1 40.04-13.39c37.65 0 68.18 30.55 68.18 68.24zm-34.14 0c0-7.33-2.17-14.5-6.24-20.6a37 37 0 0 0-16.63-13.65 37 37 0 0 0-21.41-2.11 37 37 0 0 0-18.97 10.15 37.08 37.08 0 0 0-8.03 40.4c2.8 6.77 7.55 12.56 13.65 16.63a37.02 37.02 0 0 0 46.77-4.6 37.1 37.1 0 0 0 10.86-26.2zm623.83-11.58-19.79-5.43c-13.02-3.39-18.1-7.39-18.1-14.27s7.13-11.4 17.33-11.4 17.34 6.37 17.34 14.5v.75h31.25v-.75c0-23.96-19.53-40.05-48.6-40.05s-49.7 16.08-49.7 38.25c0 17.23 11.43 30.23 31.35 35.63l18.95 5.17c14.4 3.99 19.76 8.42 19.76 16.34 0 8.37-7.74 13.99-19.26 13.99s-20.08-7.6-20.08-18.9v-.74h-33.19v.74c0 27.08 21.79 46 53 46s51.89-18.48 51.89-43.93c.02-12.43-5.56-28.77-32.15-35.87v-.02Zm-469.33-54.4h33.92v132.01h-33.92V291.6a65.5 65.5 0 0 1-40.04 13.39c-37.67 0-68.2-30.55-68.2-68.24s30.53-68.22 68.2-68.22a65.63 65.63 0 0 1 40.04 13.39v-11.18Zm0 66.02c0-7.33-2.17-14.5-6.24-20.59a37.04 37.04 0 0 0-16.63-13.65 37 37 0 0 0-21.41-2.11 37 37 0 0 0-18.97 10.15 37.076 37.076 0 0 0 5.62 57.03 36.99 36.99 0 0 0 34.76 3.42c4.5-1.86 8.58-4.6 12.03-8.04 3.44-3.45 6.17-7.53 8.03-12.03s2.81-9.32 2.81-14.19v.02Zm156.45-113.01h33.92v179h-33.92V291.6a65.63 65.63 0 0 1-40.04 13.39c-37.67 0-68.2-30.55-68.2-68.24s30.54-68.22 68.2-68.22a65.5 65.5 0 0 1 40.04 13.38v-58.16Zm0 112.99c0-7.33-2.18-14.5-6.25-20.59a37 37 0 0 0-16.63-13.65 37 37 0 0 0-21.41-2.11 37.07 37.07 0 0 0-18.97 10.15 37.1 37.1 0 0 0-10.14 18.98 37.05 37.05 0 0 0 2.12 21.42c2.8 6.77 7.55 12.56 13.65 16.63a36.96 36.96 0 0 0 20.58 6.25c9.82 0 19.25-3.91 26.19-10.86a37.07 37.07 0 0 0 10.86-26.21Zm191.45 66.02h33.92V170.75h-33.92zm16.95-184.25c-11.63 0-20.55 9.2-20.55 20.83 0 5.45 2.16 10.68 6.02 14.54 3.85 3.86 9.07 6.02 14.53 6.02s10.67-2.16 14.53-6.02c3.85-3.86 6.02-9.08 6.02-14.54 0-11.62-8.93-20.83-20.55-20.83m283.3 118.22c0 37.69-30.54 68.23-68.19 68.23s-68.2-30.55-68.2-68.23 30.54-68.22 68.2-68.22 68.19 30.54 68.19 68.23Zm-31.16 0c0-7.33-2.18-14.5-6.25-20.6a37 37 0 0 0-16.63-13.65 37 37 0 0 0-21.4-2.11 37 37 0 0 0-18.97 10.15 36.97 36.97 0 0 0-10.14 18.98c-1.43 7.19-.7 14.65 2.11 21.42 2.8 6.77 7.55 12.57 13.64 16.64a37 37 0 0 0 20.58 6.25c9.83 0 19.26-3.9 26.21-10.85a37.1 37.1 0 0 0 10.85-26.21h-.01.01ZM666.72 123.76H536.58v30.28h48.17v148.72h33.81V154.04h48.17v-30.28Zm658.18 142.85-30.18-95.86h-35.64l45.27 132.01h40.82l45.54-132.01h-35.64zm429.97-73.68v-22.18h-34v132.01h34V223.6c0-14.34 9.2-21.37 23.53-21.37h18.6v-31.48h-15.9c-12.44 0-23.25 6.49-26.23 22.18"
    class="st0"
  />
</svg>
